<svg width="512" height="512" viewBox="0 0 512 512" fill="none" xmlns="http://www.w3.org/2000/svg">
  <rect width="512" height="512" rx="128" fill="#0EA5E9"/>
  <path d="M256 128C185.307 128 128 185.307 128 256C128 326.693 185.307 384 256 384C326.693 384 384 326.693 384 256C384 185.307 326.693 128 256 128ZM256 352C203.065 352 160 308.935 160 256C160 203.065 203.065 160 256 160C308.935 160 352 203.065 352 256C352 308.935 308.935 352 256 352Z" fill="white"/>
  <path d="M256 192C221.888 192 194.745 219.143 194.745 253.255C194.745 287.367 221.888 314.51 256 314.51C290.112 314.51 317.255 287.367 317.255 253.255C317.255 219.143 290.112 192 256 192ZM256 282.51C239.459 282.51 226.745 269.796 226.745 253.255C226.745 236.714 239.459 224 256 224C272.541 224 285.255 236.714 285.255 253.255C285.255 269.796 272.541 282.51 256 282.51Z" fill="white"/>
  <path d="M256 240C248.268 240 242 246.268 242 254C242 261.732 248.268 268 256 268C263.732 268 270 261.732 270 254C270 246.268 263.732 240 256 240Z" fill="white"/>
</svg>